<svg width="22" height="22" viewBox="0 0 22 22" fill="none" xmlns="http://www.w3.org/2000/svg">
<g id="facebook-svgrepo-com 2" clip-path="url(#clip0_182_3477)">
<path id="Vector" d="M21.3099 11.0625C21.3092 5.36934 16.6941 0.75415 11.0002 0.75415C5.3063 0.75415 0.69043 5.37003 0.69043 11.0639C0.69043 16.1892 4.43043 20.4407 9.32955 21.2389L9.38868 21.2471V14.0435H6.77068V11.0625H9.38868V8.7924C9.37562 8.67759 9.36874 8.54421 9.36874 8.40946C9.36874 6.3999 10.9981 4.77052 13.0077 4.77052C13.1046 4.77052 13.2009 4.77465 13.2964 4.78153L13.2841 4.78084C14.1084 4.79252 14.9059 4.8654 15.6841 4.99534L15.592 4.98228V7.51915H14.2912C14.2321 7.5109 14.1641 7.50609 14.0953 7.50609C13.2724 7.50609 12.6048 8.17296 12.6048 8.99659C12.6048 9.04334 12.6069 9.0894 12.611 9.13546L12.6103 9.12927V11.0625H15.4696L15.0124 14.0435H12.6103V21.2471C17.5692 20.44 21.3092 16.1878 21.3099 11.0625Z" fill="#8E9AA0"/>
</g>
<defs>
<clipPath id="clip0_182_3477">
<rect width="22" height="22" fill="white"/>
</clipPath>
</defs>
</svg>
