<svg width="24" height="30" viewBox="0 0 24 30" fill="none" xmlns="http://www.w3.org/2000/svg">
<path d="M20.0659 15.8533C20.0531 13.3953 21.1116 11.54 23.254 10.1737C22.0553 8.37206 20.2444 7.38081 17.8533 7.18657C15.5898 6.99904 13.1158 8.57299 12.2104 8.57299C11.254 8.57299 9.06057 7.25355 7.339 7.25355C3.78108 7.31383 0 10.234 0 16.1748C0 17.9296 0.306057 19.7424 0.918172 21.6133C1.73433 24.0713 4.68013 30.0992 7.75345 29.9988C9.36026 29.9586 10.4952 28.7999 12.5866 28.7999C14.6142 28.7999 15.6663 29.9988 17.458 29.9988C20.5569 29.9519 23.2221 24.4732 24 22.0085C19.8427 19.9523 20.0659 15.9806 20.0659 15.8533ZM16.457 4.85579C18.1977 2.68576 18.0383 0.709951 17.9872 0C16.4506 0.0937671 14.6716 1.09841 13.6578 2.33748C12.542 3.66361 11.8852 5.30454 12.0255 7.15309C13.6897 7.28704 15.2072 6.38955 16.457 4.85579Z" fill="black"/>
</svg>
