<svg xmlns="http://www.w3.org/2000/svg" width="24" height="24" viewBox="0 0 24 24">
  <g id="ic_google" transform="translate(0.326 -0.283)">
    <rect id="Rectangle_5428" data-name="Rectangle 5428" width="24" height="24" transform="translate(-0.326 0.283)" fill="none"/>
    <g id="Group_28334" data-name="Group 28334" transform="translate(0.674 1.283)">
      <path id="Shape" d="M4.876,7.354,4.11,10.213l-2.8.059A11.019,11.019,0,0,1,1.23,0h0L3.722.457,4.814,2.934a6.565,6.565,0,0,0,.062,4.42Z" transform="translate(0 5.941)" fill="#fbbb00"/>
      <path id="Shape-2" data-name="Shape" d="M10.566,0a11.012,11.012,0,0,1,.192,2.055,11.021,11.021,0,0,1-.241,2.3,11,11,0,0,1-3.873,6.282h0l-3.139-.16L3.061,7.7A6.556,6.556,0,0,0,5.882,4.352H0V0H10.566Z" transform="translate(11.242 8.945)" fill="#518ef8"/>
      <path id="Shape-3" data-name="Shape" d="M16.575,6.283h0A10.954,10.954,0,0,1,9.689,8.705,11,11,0,0,1,0,2.918L3.565,0A6.541,6.541,0,0,0,9.689,4.244a6.5,6.5,0,0,0,3.3-.895Z" transform="translate(1.311 13.295)" fill="#28b446"/>
      <path id="Shape-4" data-name="Shape" d="M16.791,2.532,13.228,5.45A6.541,6.541,0,0,0,3.584,8.875L0,5.941H0A11,11,0,0,1,16.791,2.532Z" transform="translate(1.23)" fill="#f14336"/>
    </g>
  </g>
</svg>
