<svg xmlns="http://www.w3.org/2000/svg" xmlns:xlink="http://www.w3.org/1999/xlink" version="1.1" width="566.93pt" height="431.242pt" viewBox="0 0 566.93 431.242">
<defs>
<clipPath id="clip_0">
<path transform="matrix(1,0,0,-1,0,431.242)" d="M0 431.242H566.93V0H0Z"/>
</clipPath>
</defs>
<g id="layer_1" data-name="Layer 1">
<path transform="matrix(1,0,0,-1,0,431.242)" d="M0 0H566.93V431.242H0Z" fill="#ffffff"/>
<path transform="matrix(1,0,0,-1,0,431.242)" d="M552.249 309.877H14.68103V416.562H552.249Z" fill="#00549a"/>
<path transform="matrix(1,0,0,-1,0,431.242)" d="M552.249 299.519H14.68103V131.723H552.249Z" fill="#00549a"/>
<path transform="matrix(1,0,0,-1,0,431.242)" d="M552.249 14.68H14.68103V121.366H552.249Z" fill="#00549a"/>
<path transform="matrix(1,0,0,-1,0,431.242)" d="M467.02 325.586H482.852V335.426H467.02Z" fill="#ffffff"/>
<path transform="matrix(1,0,0,-1,0,431.242)" d="M446.822 325.586H462.654V335.426H446.822Z" fill="#ffffff"/>
<path transform="matrix(1,0,0,-1,225.289,77.34451)" d="M0 0H-9.667V13.881H-29.175V0H-170.125L-171.842 3.667-158.474 21.058V33.49H-177.669L-198.854 5.929-186.785-19.853H19.507V13.881H0Z" fill="#ffffff"/>
<path transform="matrix(1,0,0,-1,0,431.242)" d="M243.426 385.881H227.594V376.04103H243.426Z" fill="#ffffff"/>
<path transform="matrix(1,0,0,-1,0,431.242)" d="M94.965 382.899H79.132999V373.059H94.965Z" fill="#ffffff"/>
<path transform="matrix(1,0,0,-1,0,431.242)" d="M115.507 382.899H99.675V373.059H115.507Z" fill="#ffffff"/>
<path transform="matrix(1,0,0,-1,528.3066,59.472993)" d="M0 0H-57.655L-66.428 7.311H-5.183L-11.572 18.46H-88.468L-89.699 14.518-63.286-7.494H-17.845V-13.344H-66.945L-83.614 .548H-116.912V-28.88H-171.749V-16.816H-125.504V.548H-200.262V-43.137H-97.174V-19.922L-85.547-29.612H.761L12.862-17.212V-13.178Z" fill="#ffffff"/>
<path transform="matrix(1,0,0,-1,0,431.242)" d="M264.04 346.451H300.55003V362.391H264.04Z" fill="#ffffff"/>
<path transform="matrix(1,0,0,-1,481.1582,282.94709)" d="M0 0-98.691 74.234-1.733 133.616H-175.404L-260.358 81.587V133.616H-381.483V0H-260.358V69.562L-182.614 0Z" fill="#fff200"/>
<g clip-path="url(#clip_0)">
<path transform="matrix(1,0,0,-1,75.54,402.2176)" d="M0 0V66.204H17.358V58.348C19.834 61.554 22.758 63.959 26.128 65.564 29.499 67.168 33.254 67.97 37.396 67.97 44.705 67.97 50.175 66.072 53.811 62.275 57.444 58.479 59.261 52.764 59.261 45.13V0H41.537V40.014C41.537 44.765 40.736 48.155 39.131 50.186 37.527 52.216 34.919 53.23 31.306 53.23 27.123 53.23 23.814 51.981 21.377 49.485 18.941 46.988 17.724 43.586 17.724 39.283V0Z" fill="#ffffff"/>
<path transform="matrix(1,0,0,-1,268.854,361.3221)" d="M0 0H26.067C25.906 4.467 24.716 7.868 22.504 10.204 20.292 12.537 17.115 13.706 12.973 13.706 9.115 13.706 6.081 12.526 3.867 10.174 1.654 7.817 .365 4.427 0 0M25.825-19.975H43.487C41.699-26.96 38.096-32.431 32.676-36.39 27.254-40.349 20.648-42.327 12.851-42.327 3.268-42.327-4.325-39.11-9.927-32.673-15.531-26.24-18.332-17.519-18.332-6.516-18.332 4.325-15.572 12.872-10.049 19.126-4.528 25.379 3.024 28.507 12.607 28.507 22.757 28.507 30.594 25.43 36.118 19.277 41.638 13.126 44.4 4.366 44.4-7.003 44.4-8.262 44.389-9.206 44.37-9.834 44.349-10.465 44.298-11.063 44.217-11.632H0C.244-16.829 1.512-20.748 3.807-23.386 6.1-26.025 9.399-27.345 13.704-27.345 16.75-27.345 19.247-26.746 21.195-25.548 23.144-24.351 24.687-22.493 25.825-19.975" fill="#ffffff"/>
<path transform="matrix(1,0,0,-1,489.2265,410.44023)" d="M0 0C-1.624-.041-3.563-.111-5.816-.213-8.069-.313-9.5-.365-10.11-.365-16.892-.365-21.529 .903-24.027 3.442-26.523 5.978-27.772 10.982-27.772 18.455V54.267H-36.544V66.692H-27.772V84.78H-10.232V66.692H0V54.267H-10.232V17.602C-10.232 15.855-9.846 14.708-9.075 14.161-8.304 13.612-6.721 13.339-4.323 13.339H0Z" fill="#ffffff"/>
</g>
</g>
</svg>
