<svg width="44" height="21" viewBox="0 0 44 21" fill="none" xmlns="http://www.w3.org/2000/svg">
<g id="Group 7">
<path id="Vector" fill-rule="evenodd" clip-rule="evenodd" d="M1.51682 2.27993C0.552429 2.39643 0.119307 3.51205 0.237476 5.04606C0.355646 6.58036 1.10347 7.48693 1.93016 7.3243C2.77638 7.13831 3.24881 6.25481 3.09158 4.4881C2.9341 2.88431 2.22558 2.18679 1.51682 2.27993ZM4.44978 5.51117C3.44584 5.60401 3.13089 7.23116 3.15066 8.13802C3.17044 9.04459 3.48515 10.9739 4.56795 10.9506C5.63073 10.9275 6.02429 9.25364 6.00477 8.25422C5.96521 7.02211 5.61095 5.41803 4.44978 5.51117ZM1.47751 8.97481C0.158863 9.13743 -0.0183913 11.0904 0.00138711 11.4154C0.0406936 11.7409 -0.0183913 13.8098 1.3989 14.0425C2.24511 14.1818 2.91457 12.973 2.9341 11.4154C2.97341 9.88137 2.40259 8.83524 1.47751 8.97481ZM7.30363 9.53276C6.16199 9.71874 6.0636 11.7409 6.12269 12.392C6.18177 13.0195 6.43764 15.0419 7.5595 14.8793C8.70114 14.6933 8.79953 12.6244 8.76023 11.9503C8.72067 11.2764 8.40597 9.32342 7.30363 9.53276ZM4.54792 12.2758C3.52445 12.3453 3.28836 14.1123 3.28836 14.7865C3.28836 15.4603 3.40653 17.0878 4.48884 17.3432C5.51231 17.5987 5.92565 15.6233 5.90613 14.8095C5.8866 14.0656 5.65026 12.1596 4.54792 12.2758ZM1.41842 15.2279C0.532651 15.2977 -0.0183912 16.7856 0.0602218 17.9012C0.138835 19.0405 0.512873 20.5978 1.63499 20.5978C2.75685 20.5745 2.99294 18.6685 2.97341 17.8317C2.9341 16.9713 2.59937 15.1584 1.41842 15.2279Z" fill="black"/>
<path id="Vector_2" fill-rule="evenodd" clip-rule="evenodd" d="M9.37043 2.58207C9.13434 2.83784 9.38996 3.30295 9.29157 3.81418C9.1734 4.32542 9.0357 5.09272 7.9927 5.88308C6.94945 6.67345 6.28024 6.74323 6.02437 6.39461C5.74873 6.046 5.65034 5.09272 5.94576 4.13973C6.24119 3.18674 8.07157 -0.0909114 10.0987 0.00193329C12.0077 0.094778 12.3229 2.11726 12.2048 3.14003C12.0671 4.41856 11.7914 5.60396 11.3585 7.46381C10.9254 9.34672 10.7089 11.4617 10.7877 12.4384C10.8663 13.4147 10.9845 14.1817 11.6933 14.0655C12.4216 13.926 12.6774 12.9963 12.8349 12.3452C13.0122 11.7178 13.6025 9.04453 13.8584 7.3476C14.0747 5.90644 14.4685 4.97652 15.177 4.11637C15.5313 3.67462 16.0232 3.25623 16.5548 3.30295C17.1649 3.37273 17.6175 3.7447 17.5782 5.46469C17.5585 7.20804 17.4996 9.06789 17.1256 10.6486C16.7713 12.2293 16.1021 14.4144 14.7244 16.3438C13.3662 18.2731 12.0673 19.6217 11.5553 20.0401C11.0634 20.4585 10.7091 20.714 10.2958 20.0168C9.88242 19.3426 9.70541 18.9011 9.50838 17.6457C9.33113 16.3671 9.37068 14.7631 9.58725 12.8801C9.80356 11.0206 10.3942 7.3476 10.5714 6.32483C10.7487 5.30206 10.9257 4.3955 10.7091 3.6282C10.4923 2.8609 9.66561 2.25682 9.37043 2.58207ZM21.1013 8.44015C20.5305 8.32395 19.3102 8.62614 19.0346 9.39314C18.7592 10.2533 16.0626 18.3429 15.8658 19.0171C15.669 19.6909 15.7083 19.9233 16.2005 20.1327C16.6925 20.3417 17.8932 19.8538 18.2277 18.9006C18.5819 17.9473 21.436 9.7184 21.5737 9.3C21.7312 8.88191 21.5933 8.50964 21.1013 8.44015ZM24.0928 8.34701C23.2464 8.34701 22.7349 8.97475 22.5579 9.53241C22.3609 10.1134 19.5265 18.5753 19.3888 18.947C19.2511 19.3187 19.0343 20.1791 19.8808 20.2022C20.7468 20.2022 21.6326 19.342 21.8293 18.8074C22.0459 18.2261 23.2664 15.0185 23.2664 15.0185L23.9749 17.8544C23.9749 17.8544 23.7193 18.8308 23.6399 19.1794C23.5416 19.528 23.4825 20.2022 24.0928 20.2255C24.7032 20.2486 25.7462 19.7607 26.0614 18.8769C26.3759 17.9706 29.092 9.85766 29.2495 9.39255C29.427 8.88131 29.3086 8.46263 28.561 8.46263C27.8129 8.43927 27.0849 8.71839 26.809 9.53182C26.5534 10.3452 25.9034 12.3911 25.9034 12.3911C25.9034 12.3911 25.3133 9.95021 25.1363 9.29912C24.9789 8.6492 24.6837 8.37037 24.0928 8.34701ZM31.7103 8.4168C30.9822 8.4168 30.6868 8.78877 30.3518 9.76511C30.0174 10.7415 27.5769 17.9709 27.2814 18.8775C27.0649 19.5984 27.0453 20.1794 27.5964 20.1794C28.1474 20.2024 29.7024 20.2024 30.5098 20.1794C32.3204 20.133 32.8912 18.3195 33.0094 17.7846C33.2255 16.9248 32.8319 16.6924 32.3399 16.669H30.5684L30.8443 15.716H32.4383C33.0094 15.716 34.0129 15.4139 34.4853 13.6702C34.6232 13.159 34.4462 12.4615 33.4228 12.4615H32.1432L32.3207 11.7873H33.6591C34.4465 11.7873 35.6467 11.3923 36.0012 9.57913C36.1191 8.88191 35.8828 8.4168 35.1743 8.4168H31.7103ZM39.7208 11.648C39.7208 11.648 39.2289 9.67197 39.0518 8.85825C38.9139 8.3003 38.3629 7.92833 37.6148 8.5327C37.0049 9.04394 36.1782 9.90409 36.5127 11.2758C36.8281 12.6241 37.2803 14.135 37.2803 14.135C37.2803 14.135 34.5639 16.9245 33.9933 17.5522C33.1664 18.4121 33.4228 19.4813 33.6784 19.8535C34.0524 20.3648 34.5839 20.109 35.0564 19.6442C35.5288 19.156 37.91 16.5295 37.91 16.5295C37.91 16.5295 38.5399 18.7146 38.796 19.4813C39.0714 20.3878 39.662 20.2022 39.9965 20.0162C40.6264 19.6676 41.571 18.5052 41.2956 17.3195C41.0001 16.1341 40.3705 13.9257 40.3705 13.9257C40.3705 13.9257 42.8305 10.9966 43.5786 10.1368C44.051 9.57883 44.0901 9.04424 43.874 8.71869C43.6575 8.39314 42.7915 8.04453 42.2995 8.60248C41.7878 9.1838 39.7208 11.648 39.7208 11.648Z" fill="black"/>
<g id="Group">
<path id="Vector_3" fill-rule="evenodd" clip-rule="evenodd" d="M19.4872 8.99794C19.2313 9.16057 19.2115 9.34655 19.2706 9.41633C19.3492 9.48611 19.4872 9.25371 19.5462 9.23035C19.6053 9.18393 19.8612 8.95152 20.1171 8.88174C20.2943 8.85838 20.2548 8.71911 20.0973 8.74218C19.9203 8.7886 19.7235 8.85838 19.4872 8.99794ZM22.9907 9.09079C22.8527 9.27677 22.7351 9.48582 22.7153 9.57896C22.6757 9.74159 22.8527 9.83473 22.9314 9.64874C22.9514 9.53254 23.01 9.34655 23.1089 9.23035C23.1875 9.1375 23.3843 8.99794 23.522 8.95152C23.6599 8.92816 23.6203 8.81196 23.4824 8.81196C23.3252 8.83502 23.1091 8.92816 22.9907 9.09079ZM27.3797 9.02101C27.1832 9.20699 27.1437 9.39298 27.1241 9.4394C27.0851 9.57896 27.1832 9.64874 27.2621 9.53224C27.3407 9.39268 27.38 9.25341 27.4982 9.16027C27.5966 9.06743 27.7147 8.99765 27.8327 8.95093C27.9113 8.92757 27.9113 8.81137 27.7936 8.83473C27.6556 8.85838 27.4786 8.95122 27.3797 9.02101ZM31.0408 9.02101C30.8442 9.23035 30.7258 9.53224 30.6868 9.6718C30.6472 9.83443 30.8047 9.88115 30.8442 9.71823C30.9033 9.53224 31.0212 9.32319 31.1397 9.18363C31.238 9.06743 31.4151 8.88144 31.5921 8.88144C31.7495 8.88144 31.73 8.74188 31.6121 8.74188C31.4546 8.71882 31.2183 8.7886 31.0408 9.02101ZM41.8072 9.50918C41.7487 9.62538 41.8268 9.76495 41.9452 9.64874C42.0436 9.53254 42.4962 8.99794 42.5751 8.88174C42.6735 8.78889 42.5751 8.57955 42.4767 8.67239C42.3388 8.7886 42.2008 8.99794 42.1027 9.11415C42.0045 9.23035 41.8666 9.4394 41.8072 9.50918ZM37.3003 9.11415C37.0642 9.34655 36.9458 9.57896 36.9262 9.6721C36.8867 9.81166 36.9848 9.92787 37.1032 9.7883C37.2211 9.62568 37.2802 9.41633 37.4377 9.25371C37.5594 9.10644 37.6987 8.98111 37.8513 8.88174C37.9887 8.81196 37.9299 8.69575 37.7922 8.74218C37.6738 8.81196 37.4773 8.92816 37.3003 9.11415Z" fill="white"/>
</g>
</g>
</svg>
