<svg xmlns="http://www.w3.org/2000/svg" viewBox="0 0 564.5 366.9" xmlns:v="https://vecta.io/nano"><g transform="matrix(1.215282 0 0 1.215282 -67.025868 -37.711623)"><path d="M519.7 182.2c0 79.5-64.3 143.9-143.6 143.9s-143.6-64.4-143.6-143.9S296.7 38.3 376 38.3s143.7 64.4 143.7 143.9h0z" fill="#f79f1a"/><path d="M342.4 182.2c0 79.5-64.3 143.9-143.6 143.9S55.2 261.7 55.2 182.2 119.5 38.3 198.8 38.3s143.6 64.4 143.6 143.9h0z" fill="#ea001b"/><path d="M287.4 68.9c-33.5 26.3-55 67.3-55 113.3s21.5 87 55 113.3c33.5-26.3 55-67.3 55-113.3s-21.5-86.9-55-113.3z" fill="#ff5f01"/><path d="M519.345 258.616v-5.082h-1.27l-1.525 3.557-1.525-3.684h-1.397v5.082h.889v-3.811l1.397 3.303h1.016l1.525-3.303v3.938h.889zm-8.512 0v-4.319h1.779v-.889h-4.319v.889h1.779v4.319h.762z" fill="#f79f1a"/></g></svg>