<svg width="375" height="294" viewBox="0 0 375 294" fill="none" xmlns="http://www.w3.org/2000/svg">
    <rect width="375" height="294" fill="#EDF3F6" />
    <rect width="375" height="294" fill="white" />
    <mask id="mask0_916_5829" style="mask-type:alpha" maskUnits="userSpaceOnUse" x="24" y="38"
        width="302" height="221">
        <path fill-rule="evenodd" clip-rule="evenodd"
            d="M37.9998 38C34.1338 38 30.9998 41.134 30.9998 45C30.9998 48.866 34.1338 52 37.9998 52H142C145.866 52 149 48.866 149 45C149 41.134 145.866 38 142 38H37.9998ZM30.9998 76C30.9998 72.134 34.1338 69 37.9998 69H214C217.866 69 221 72.134 221 76C221 79.866 217.866 83 214 83H37.9998C34.1338 83 30.9998 79.866 30.9998 76ZM24.8364 127C24.8364 110.431 38.2679 97 54.8364 97H289.081C305.65 97 319.081 110.431 319.081 127C319.081 143.569 305.65 157 289.081 157H54.8364C38.2679 157 24.8364 143.569 24.8364 127ZM79.9998 181C79.9998 177.134 83.1338 174 86.9998 174H119C122.866 174 126 177.134 126 181C126 184.866 122.866 188 119 188H86.9998C83.1338 188 79.9998 184.866 79.9998 181ZM86.9998 228C83.1338 228 79.9998 231.134 79.9998 235C79.9998 238.866 83.1338 242 86.9998 242H119C122.866 242 126 238.866 126 235C126 231.134 122.866 228 119 228H86.9998ZM79.9998 198C79.9998 194.134 83.1338 191 86.9998 191H319C322.866 191 326 194.134 326 198C326 201.866 322.866 205 319 205H86.9998C83.1338 205 79.9998 201.866 79.9998 198ZM86.9998 245C83.1338 245 79.9998 248.134 79.9998 252C79.9998 255.866 83.1338 259 86.9998 259H319C322.866 259 326 255.866 326 252C326 248.134 322.866 245 319 245H86.9998ZM71.9998 180.5C71.9998 186.299 67.2988 191 61.4998 191C55.7008 191 50.9998 186.299 50.9998 180.5C50.9998 174.701 55.7008 170 61.4998 170C67.2988 170 71.9998 174.701 71.9998 180.5ZM61.4998 249C67.2988 249 71.9998 244.299 71.9998 238.5C71.9998 232.701 67.2988 228 61.4998 228C55.7008 228 50.9998 232.701 50.9998 238.5C50.9998 244.299 55.7008 249 61.4998 249Z"
            fill="#EDF3F6" />
    </mask>
    <g mask="url(#mask0_916_5829)">
        <rect x="19" y="32" width="345" height="248" fill="#EDF3F6" />
    </g>
</svg>
