<svg width="20" height="20" viewBox="0 0 20 20" fill="none" xmlns="http://www.w3.org/2000/svg">
<path id="Vector" d="M16.6592 20C15.7312 20 14.9436 19.7174 14.2965 19.1521C13.6493 18.5869 13.3257 17.9005 13.3257 17.093C13.3257 16.9387 13.3382 16.7981 13.363 16.6711C13.3879 16.5441 13.4251 16.4012 13.4748 16.2425L5.62839 12.0601C5.3503 12.3702 5.01146 12.5909 4.61187 12.7222C4.21227 12.8535 3.78887 12.9192 3.34167 12.9192C2.40685 12.9192 1.61621 12.6351 0.969738 12.067C0.323246 11.4989 0 10.809 0 9.99739C0 9.19334 0.324559 8.5099 0.973676 7.94707C1.62279 7.38424 2.411 7.10283 3.33829 7.10283C3.78456 7.10283 4.20989 7.17075 4.61427 7.3066C5.01868 7.44244 5.35672 7.65354 5.62839 7.93988L13.4748 3.75773C13.4251 3.59895 13.3879 3.45607 13.363 3.32909C13.3382 3.2021 13.3257 3.0618 13.3257 2.90818C13.3257 2.10035 13.6505 1.4137 14.3002 0.84822C14.9497 0.282741 15.7386 0 16.6666 0C17.5946 0 18.3821 0.281414 19.0293 0.844242C19.6764 1.40707 20 2.09051 20 2.89456C20 3.70616 19.6754 4.39603 19.0263 4.96416C18.3772 5.53227 17.589 5.81632 16.6617 5.81632C16.213 5.81632 15.7887 5.75067 15.3887 5.61937C14.9887 5.48808 14.6497 5.26739 14.3716 4.95729L6.52518 9.13623C6.57488 9.29717 6.61216 9.44447 6.63702 9.57814C6.66187 9.71182 6.6743 9.85525 6.6743 10.0084C6.6743 10.1616 6.66187 10.3021 6.63702 10.4301C6.61216 10.558 6.57488 10.7014 6.52518 10.8602L14.3716 15.0427C14.6497 14.7145 14.9885 14.4892 15.3881 14.367C15.7877 14.2448 16.2111 14.1837 16.6583 14.1837C17.5931 14.1837 18.3838 14.4671 19.0303 15.034C19.6768 15.6008 20 16.2892 20 17.099C20 17.9073 19.6752 18.5929 19.0256 19.1558C18.376 19.7186 17.5872 20 16.6592 20ZM16.6629 4.50999C17.1721 4.50999 17.6058 4.35396 17.9638 4.0419C18.3219 3.72985 18.5009 3.35194 18.5009 2.90818C18.5009 2.4644 18.3219 2.08648 17.9638 1.77442C17.6058 1.46236 17.1721 1.30634 16.6629 1.30634C16.1536 1.30634 15.72 1.46236 15.3619 1.77442C15.0038 2.08648 14.8248 2.4644 14.8248 2.90818C14.8248 3.35194 15.0038 3.72985 15.3619 4.0419C15.72 4.35396 16.1536 4.50999 16.6629 4.50999ZM3.33714 11.6128C3.84635 11.6128 4.28 11.4568 4.63809 11.1448C4.99618 10.8327 5.17522 10.4548 5.17522 10.011C5.17522 9.56723 4.99618 9.18931 4.63809 8.87725C4.28 8.56521 3.84635 8.40919 3.33714 8.40919C2.8279 8.40919 2.39424 8.56521 2.03615 8.87725C1.67806 9.18931 1.49902 9.56723 1.49902 10.011C1.49902 10.4548 1.67806 10.8327 2.03615 11.1448C2.39424 11.4568 2.8279 11.6128 3.33714 11.6128ZM16.6629 18.6937C17.1721 18.6937 17.6058 18.5376 17.9638 18.2256C18.3219 17.9135 18.5009 17.5356 18.5009 17.0919C18.5009 16.6481 18.3219 16.2702 17.9638 15.9581C17.6058 15.646 17.1721 15.49 16.6629 15.49C16.1536 15.49 15.72 15.646 15.3619 15.9581C15.0038 16.2702 14.8248 16.6481 14.8248 17.0919C14.8248 17.5356 15.0038 17.9135 15.3619 18.2256C15.72 18.5376 16.1536 18.6937 16.6629 18.6937Z" fill="black"/>
</svg>
