<svg width="13" height="12" viewBox="0 0 13 12" fill="none" xmlns="http://www.w3.org/2000/svg">
<g id="star">
<path id="Vector" d="M9.58421 7.11236C9.42828 7.26339 9.35663 7.48182 9.39216 7.69603L9.92739 10.6565C9.97255 10.9074 9.86658 11.1614 9.65646 11.3064C9.45056 11.4568 9.17662 11.4749 8.95205 11.3545L6.2855 9.96453C6.19278 9.91519 6.08983 9.88871 5.98446 9.8857H5.8213C5.76471 9.89413 5.70932 9.91218 5.65875 9.93986L2.99159 11.3365C2.85974 11.4026 2.71042 11.4261 2.56412 11.4026C2.2077 11.3353 1.96988 10.9959 2.02828 10.6379L2.56412 7.67738C2.59964 7.46136 2.528 7.24173 2.37206 7.08829L0.198005 4.98226C0.0161809 4.80595 -0.0470359 4.54119 0.0360492 4.30232C0.116726 4.06404 0.322632 3.89014 0.571286 3.85103L3.56355 3.41719C3.79113 3.39372 3.99102 3.25532 4.09337 3.05074L5.4119 0.349C5.44321 0.288827 5.48355 0.233469 5.53231 0.186534L5.5865 0.144414C5.6148 0.113124 5.64731 0.08725 5.68343 0.0661897L5.74906 0.0421207L5.85141 0H6.10488C6.33125 0.0234672 6.53054 0.158855 6.63469 0.361034L7.97068 3.05074C8.06701 3.2475 8.25425 3.38409 8.47039 3.41719L11.4627 3.85103C11.7155 3.88713 11.9269 4.06163 12.0105 4.30232C12.0894 4.5436 12.0214 4.80836 11.8359 4.98226L9.58421 7.11236Z" fill="#FFAB07"/>
</g>
</svg>
