<svg width="28" height="22" viewBox="0 0 28 22" fill="none" xmlns="http://www.w3.org/2000/svg">
<g id="Page-1">
<g id="Dribbble-Light-Preview">
<g id="icons">
<path id="twitter-[#154]" fill-rule="evenodd" clip-rule="evenodd" d="M8.64886 22C19.0261 22 24.7022 13.5348 24.7022 6.19468C24.7022 5.95371 24.7022 5.71455 24.6857 5.47629C25.7898 4.6911 26.7427 3.7162 27.5004 2.6007C26.4718 3.05016 25.3787 3.34491 24.2608 3.47486C25.4378 2.78038 26.3192 1.68931 26.7413 0.401884C25.6331 1.04898 24.4217 1.50568 23.158 1.75072C21.0213 -0.485708 17.4476 -0.594063 15.1747 1.50969C13.7103 2.86615 13.0874 4.88863 13.5425 6.81774C9.00636 6.59302 4.77956 4.48389 1.91402 1.0142C0.416631 3.55249 1.18252 6.79848 3.66167 8.42842C2.76379 8.40269 1.88515 8.16468 1.10001 7.73419V7.80469C1.10139 10.4486 2.99479 12.7251 5.62657 13.249C4.79606 13.4724 3.9243 13.5048 3.08004 13.3437C3.81842 15.6072 5.93733 17.1575 8.35048 17.2022C6.35258 18.7482 3.88442 19.5877 1.34339 19.585C0.895137 19.5836 0.446881 19.5579 0 19.5051C2.58091 21.135 5.58257 22 8.64886 21.996" fill="#8E9AA0"/>
</g>
</g>
</g>
</svg>
