<svg width="40" height="40" viewBox="0 0 40 40" fill="none" xmlns="http://www.w3.org/2000/svg">
<g id="vuesax/linear/user-add">
<g id="vuesax/linear/user-add_2">
<g id="user-add">
<path id="Vector" d="M19.9993 20C24.6017 20 28.3327 16.2691 28.3327 11.6667C28.3327 7.06433 24.6017 3.33337 19.9993 3.33337C15.397 3.33337 11.666 7.06433 11.666 11.6667C11.666 16.2691 15.397 20 19.9993 20Z" stroke="#292D32" stroke-width="1.5" stroke-linecap="round" stroke-linejoin="round"/>
<path id="Vector_2" d="M5.68359 36.6667C5.68359 30.2167 12.1003 25 20.0003 25C21.6003 25 23.1503 25.2167 24.6003 25.6167" stroke="#292D32" stroke-width="1.5" stroke-linecap="round" stroke-linejoin="round"/>
<path id="Vector_3" d="M36.6673 30C36.6673 30.5334 36.6007 31.05 36.4673 31.55C36.3173 32.2167 36.0507 32.8667 35.7007 33.4334C34.5507 35.3667 32.434 36.6667 30.0007 36.6667C28.284 36.6667 26.734 36.0167 25.5673 34.95C25.0673 34.5167 24.634 34 24.3006 33.4334C23.684 32.4334 23.334 31.25 23.334 30C23.334 28.2 24.0507 26.5501 25.2173 25.3501C26.434 24.1001 28.134 23.3334 30.0007 23.3334C31.9673 23.3334 33.7507 24.1834 34.9507 25.5501C36.0173 26.7334 36.6673 28.3 36.6673 30Z" stroke="#292D32" stroke-width="1.5" stroke-miterlimit="10" stroke-linecap="round" stroke-linejoin="round"/>
<g id="Group">
<path id="Vector_4" d="M32.4842 29.9666H27.5176" stroke="#292D32" stroke-width="1.5" stroke-miterlimit="10" stroke-linecap="round" stroke-linejoin="round"/>
<path id="Vector_5" d="M30 27.5333V32.5166" stroke="#292D32" stroke-width="1.5" stroke-miterlimit="10" stroke-linecap="round" stroke-linejoin="round"/>
</g>
</g>
</g>
</g>
</svg>
